<svg width="91" height="90" viewBox="0 0 91 90" fill="none" xmlns="http://www.w3.org/2000/svg">
<path d="M46.0306 46.875C45.9956 43.9527 47.1124 41.134 49.1395 39.0287C51.1665 36.9234 53.9409 35.7007 56.8624 35.625C59.0879 35.6142 61.2661 36.2669 63.1189 37.4997C64.9717 38.7326 66.415 40.4896 67.2646 42.5466C68.1141 44.6035 68.3314 46.867 67.8886 49.0479C67.4459 51.2289 66.3631 53.2285 64.7787 54.7913C60.1962 58.5413 46.0287 69.375 46.0287 69.375H68.1125M22.8875 69.375H39.7625M22.8875 40.2656L31.325 35.625M31.325 35.625V69.375" stroke="#609CA4" stroke-linecap="round" stroke-linejoin="round"/>
<path d="M61.4375 25.3125C64.0263 25.3125 66.125 23.2138 66.125 20.625C66.125 18.0362 64.0263 15.9375 61.4375 15.9375C58.8487 15.9375 56.75 18.0362 56.75 20.625C56.75 23.2138 58.8487 25.3125 61.4375 25.3125Z" stroke="#609CA4" stroke-linecap="round" stroke-linejoin="round"/>
<path d="M29.5625 25.3125C32.1513 25.3125 34.25 23.2138 34.25 20.625C34.25 18.0362 32.1513 15.9375 29.5625 15.9375C26.9737 15.9375 24.875 18.0362 24.875 20.625C24.875 23.2138 26.9737 25.3125 29.5625 25.3125Z" stroke="#609CA4" stroke-linecap="round" stroke-linejoin="round"/>
<path d="M14.5625 10.3125C13.5679 10.3125 12.6141 10.7076 11.9108 11.4108C11.2076 12.1141 10.8125 13.0679 10.8125 14.0625V75.9375C10.8125 76.9321 11.2076 77.8859 11.9108 78.5891C12.6141 79.2924 13.5679 79.6875 14.5625 79.6875H76.4375C77.4321 79.6875 78.3859 79.2924 79.0891 78.5891C79.7924 77.8859 80.1875 76.9321 80.1875 75.9375V14.0625C80.1875 13.0679 79.7924 12.1141 79.0891 11.4108C78.3859 10.7076 77.4321 10.3125 76.4375 10.3125H14.5625Z" stroke="#609CA4" stroke-linecap="round" stroke-linejoin="round"/>
</svg>
