<svg width="91" height="90" viewBox="0 0 91 90" fill="none" xmlns="http://www.w3.org/2000/svg">
<path d="M77.1712 55.1988C77.8612 55.1813 78.2337 53.9213 78.2337 53.9213C78.2337 53.9213 80.7337 54.0788 81.1249 52.4375C81.1762 52.22 81.4849 35.2 79.2137 30.4738C79.1229 30.2856 78.9858 30.1236 78.8153 30.0029C78.6447 29.8822 78.4463 29.8068 78.2387 29.7838C74.4362 29.3338 53.9462 28.3363 37.9224 30.1713C37.9224 30.1713 32.1212 31.6763 21.9849 38.7663C21.9849 38.7663 15.1099 41.5788 12.1412 43.6088C9.17245 45.6388 9.24995 49.5475 9.24995 49.5475C9.24995 49.5475 9.56245 53.2975 10.1874 54.47C10.2824 54.6488 10.6849 56.01 13.4149 56.07" fill="white"/>
<path d="M81.1662 50.1462H69.5187V51.1487C69.5186 51.6816 69.6234 52.2093 69.8272 52.7017C70.0311 53.194 70.33 53.6414 70.7068 54.0182C71.0836 54.395 71.5309 54.6939 72.0233 54.8977C72.5156 55.1016 73.0433 55.2064 73.5762 55.2062H77.4587C78.69 55.2062 79.855 54.6462 80.6237 53.6862L81.75 52.2812L81.1662 50.1462ZM22.3112 51.125H10.6625V54.2975L13.1175 56.07H20.55L22.8937 53.3562L22.3112 51.125Z" fill="#609CA4" fill-opacity="0.67"/>
<path d="M21.915 58.6275C23.9861 58.6275 25.665 56.9486 25.665 54.8775C25.665 52.8064 23.9861 51.1275 21.915 51.1275C19.844 51.1275 18.165 52.8064 18.165 54.8775C18.165 56.9486 19.844 58.6275 21.915 58.6275Z" fill="#609CA4"/>
<path d="M69.5188 58.6275C71.5899 58.6275 73.2688 56.9486 73.2688 54.8775C73.2688 52.8064 71.5899 51.1275 69.5188 51.1275C67.4477 51.1275 65.7688 52.8064 65.7688 54.8775C65.7688 56.9486 67.4477 58.6275 69.5188 58.6275Z" fill="#609CA4"/>
<path d="M42.8962 32.8537V41.1875L25.1875 41.6825C25.1875 41.6825 33.8337 31.8125 42.8962 32.8537Z" fill="#609CA4" fill-opacity="0.67"/>
<path d="M18.5187 46.1512C18.5187 46.1512 18.6249 44.8037 16.9062 44.6475C15.1874 44.4912 12.0337 46.1512 11.8587 46.6012C11.6824 47.0512 11.4212 48.3912 12.2087 48.6325C12.9974 48.8725 18.5187 46.1512 18.5187 46.1512Z" fill="#D0CFCE"/>
<path d="M17.3312 46.0413C17.3312 46.0413 14.875 48.1163 12.86 48.4388L17.3312 46.0413Z" fill="#D0CFCE"/>
<path d="M29.0425 54.84C39.3787 54.7488 50.8112 54.51 60.71 54.2975" stroke="#609CA4" stroke-miterlimit="10" stroke-linecap="round" stroke-linejoin="round"/>
<path d="M21.9149 58.6275C23.986 58.6275 25.6649 56.9486 25.6649 54.8775C25.6649 52.8064 23.986 51.1275 21.9149 51.1275C19.8438 51.1275 18.1649 52.8064 18.1649 54.8775C18.1649 56.9486 19.8438 58.6275 21.9149 58.6275Z" stroke="#609CA4" stroke-miterlimit="10"/>
<path d="M69.5187 58.6275C71.5897 58.6275 73.2687 56.9486 73.2687 54.8775C73.2687 52.8064 71.5897 51.1275 69.5187 51.1275C67.4476 51.1275 65.7687 52.8064 65.7687 54.8775C65.7687 56.9486 67.4476 58.6275 69.5187 58.6275Z" stroke="#609CA4" stroke-miterlimit="10"/>
<path d="M42.8962 34.1038V41.1875L26.125 42.3338M30.6037 50.3538L61.8537 49.1038M17.3312 46.0413C17.3312 46.0413 14.875 48.1163 12.86 48.4388" stroke="#609CA4" stroke-miterlimit="10" stroke-linecap="round" stroke-linejoin="round"/>
<path d="M77.1712 53.9488L78.2337 53.9213C78.2337 53.9213 80.7337 54.0788 81.1249 52.4375C81.1762 52.22 81.4849 35.2 79.2137 30.4738C79.1229 30.2856 78.9858 30.1236 78.8153 30.0029C78.6447 29.8822 78.4463 29.8068 78.2387 29.7838C74.4362 29.3338 53.9462 28.3363 37.9224 30.1713C37.9224 30.1713 32.1212 31.6763 21.9849 38.7663C21.9849 38.7663 15.1099 41.5788 12.1412 43.6088C9.17245 45.6388 9.24995 49.5475 9.24995 49.5475C9.24995 49.5475 9.56245 53.2975 10.1874 54.47C10.2824 54.6488 10.6849 54.76 13.4149 54.82" stroke="#609CA4" stroke-miterlimit="10" stroke-linecap="round" stroke-linejoin="round"/>
</svg>
