<svg width="91" height="90" viewBox="0 0 91 90" fill="none" xmlns="http://www.w3.org/2000/svg">
<path d="M45.5 85.3125C67.764 85.3125 85.8125 67.264 85.8125 45C85.8125 22.736 67.764 4.6875 45.5 4.6875C23.236 4.6875 5.1875 22.736 5.1875 45C5.1875 67.264 23.236 85.3125 45.5 85.3125Z" stroke="#609CA4" stroke-linecap="round" stroke-linejoin="round"/>
<path d="M35.975 63.6375C38.0622 64.8002 40.432 65.3585 42.8187 65.25H48.8188C51.4993 65.2401 54.0669 64.1696 55.9606 62.2724C57.8543 60.3752 58.9201 57.8056 58.925 55.125V55.125C58.925 52.4429 57.8608 49.8704 55.9661 47.9722C54.0713 46.0739 51.5008 45.005 48.8188 45H42.1812C39.4992 44.995 36.9287 43.9261 35.0339 42.0278C33.1392 40.1296 32.075 37.5571 32.075 34.875C32.075 32.1929 33.1392 29.6204 35.0339 27.7222C36.9287 25.8239 39.4992 24.755 42.1812 24.75H48.1813C50.2633 24.6816 52.3338 25.0854 54.2375 25.9312M45.5 24.75V19.6875M45.5 70.3125V65.25M17 73.5L74 16.5" stroke="#609CA4" stroke-linecap="round" stroke-linejoin="round"/>
</svg>
