<svg width="90" height="90" viewBox="0 0 90 90" fill="none" xmlns="http://www.w3.org/2000/svg">
<path d="M22.6875 44.4375V30.75C22.6875 28.5 24.5625 26.8125 26.8125 26.8125H63.1875C65.4375 26.8125 67.3125 28.6875 67.3125 30.75V44.4375" stroke="#609CA4" stroke-linecap="round" stroke-linejoin="round"/>
<path d="M24.375 55.3125C23.4375 55.3125 22.6875 54.5625 22.6875 53.625V44.25C22.6875 43.3125 21.9375 42.5625 21 42.5625H13.875C10.3125 42.5625 7.68752 45 8.43752 47.0625C10.3125 51.5625 16.3125 64.5 16.3125 64.5C17.0625 66 18.9375 66.75 20.0625 66.75H68.4375C70.6875 66.75 72.75 65.8125 73.5 64.5C73.5 64.5 79.5 51.375 81.375 47.0625C82.125 45.1875 79.6875 42.5625 75.9375 42.5625H68.8125C67.875 42.5625 67.125 43.3125 67.125 44.25V53.625C67.125 54.5625 66.375 55.3125 65.4375 55.3125H24.375V55.3125Z" stroke="#609CA4" stroke-miterlimit="10" stroke-linecap="round" stroke-linejoin="round"/>
</svg>
