<svg width="50" height="50" viewBox="0 0 50 50" fill="none" xmlns="http://www.w3.org/2000/svg">
<path d="M19.5833 34.375L24.9999 28.9583L30.4166 34.375L33.3333 31.4583L27.9166 26.0417L33.3333 20.625L30.4166 17.7083L24.9999 23.125L19.5833 17.7083L16.6666 20.625L22.0833 26.0417L16.6666 31.4583L19.5833 34.375ZM14.5833 43.75C13.4374 43.75 12.4569 43.3424 11.6416 42.5271C10.8249 41.7104 10.4166 40.7292 10.4166 39.5833V12.5H8.33325V8.33333H18.7499V6.25H31.2499V8.33333H41.6666V12.5H39.5833V39.5833C39.5833 40.7292 39.1756 41.7104 38.3603 42.5271C37.5437 43.3424 36.5624 43.75 35.4166 43.75H14.5833ZM35.4166 12.5H14.5833V39.5833H35.4166V12.5ZM14.5833 12.5V39.5833V12.5Z" fill="white"/>
</svg>
