<svg width="49" height="49" viewBox="0 0 49 49" fill="none" xmlns="http://www.w3.org/2000/svg">
<g clip-path="url(#clip0_101_38)">
<path d="M25.8333 40.5H5.83329C5.12605 40.5 4.44777 40.219 3.94767 39.719C3.44758 39.2189 3.16663 38.5406 3.16663 37.8333V11.1667C3.16663 10.4594 3.44758 9.78115 3.94767 9.28105C4.44777 8.78095 5.12605 8.5 5.83329 8.5H43.1666C43.8739 8.5 44.5522 8.78095 45.0522 9.28105C45.5523 9.78115 45.8333 10.4594 45.8333 11.1667V24.9933C44.057 22.731 41.4732 21.2449 38.6244 20.8473C35.7757 20.4496 32.8836 21.1713 30.5557 22.8607C28.2278 24.5501 26.645 27.0759 26.1399 29.9076C25.6347 32.7392 26.2465 35.6565 27.8466 38.0467L26.6066 39.5667L25.8333 40.5ZM9.83329 16.5V18.6333H32.5V16.5H9.83329ZM9.83329 23.9667H24.5V21.8333H9.83329V23.9667ZM9.83329 33.3H23.1666V31.1667H9.83329V33.3Z" fill="#609CA4"/>
<path d="M45.6066 31.9534C45.6102 30.5475 45.2647 29.1627 44.6012 27.9233C43.9377 26.6838 42.9769 25.6285 41.805 24.8519C40.6331 24.0753 39.2867 23.6018 37.8867 23.4738C36.4866 23.3458 35.0767 23.5673 33.7834 24.1185C32.4901 24.6697 31.3538 25.5333 30.4765 26.6318C29.5993 27.7304 29.0084 29.0296 28.7569 30.4128C28.5055 31.796 28.6013 33.2199 29.0359 34.557C29.4704 35.894 30.23 37.1023 31.2466 38.0734L28.66 41.2334L29.86 46.0467L34.74 40.1C36.2847 40.5568 37.9286 40.5568 39.4733 40.1L44.3533 46.0467L45.5533 41.2334L42.9666 38.0734C43.7985 37.2854 44.4614 36.3366 44.9153 35.2845C45.3691 34.2325 45.6043 33.0991 45.6066 31.9534ZM31.2866 31.9534C31.2708 30.7977 31.599 29.6634 32.2295 28.6947C32.86 27.7261 33.7644 26.9668 34.8275 26.5135C35.8907 26.0602 37.0647 25.9334 38.2002 26.1491C39.3357 26.3648 40.3814 26.9133 41.2042 27.7249C42.0271 28.5365 42.5901 29.5745 42.8215 30.7069C43.0528 31.8393 42.9422 33.0149 42.5037 34.0843C42.0651 35.1536 41.3184 36.0684 40.3586 36.7122C39.3987 37.3561 38.2691 37.6999 37.1133 37.7C35.5819 37.7036 34.1113 37.1014 33.0222 36.0248C31.9332 34.9483 31.314 33.4847 31.3 31.9534H31.2866Z" fill="#609CA4"/>
</g>
<defs>
<clipPath id="clip0_101_38">
<rect width="48" height="48" fill="white" transform="translate(0.5 0.5)"/>
</clipPath>
</defs>
</svg>
