<svg width="48" height="49" viewBox="0 0 48 49" fill="none" xmlns="http://www.w3.org/2000/svg">
<path d="M31.2001 32.036L34.0081 17.78C35.9041 16.748 37.2001 14.78 37.2001 12.5C37.2001 10.9087 36.5679 9.38258 35.4427 8.25736C34.3175 7.13214 32.7913 6.5 31.2001 6.5C29.6088 6.5 28.0826 7.13214 26.9574 8.25736C25.8322 9.38258 25.2001 10.9087 25.2001 12.5C25.2001 14.78 26.496 16.748 28.392 17.78L31.2001 32.036ZM31.2001 8.9C33.192 8.9 34.8001 10.508 34.8001 12.5C34.8001 14.492 33.192 16.1 31.2001 16.1C29.208 16.1 27.6 14.492 27.6 12.5C27.6 10.508 29.208 8.9 31.2001 8.9ZM35.3281 20.42L43.2001 17.228V38.828L31.4881 43.7L16.8 38.828L4.80005 43.628V22.028L16.8 17.228L27.048 20.612L31.2001 38.132L35.3281 20.42Z" fill="#609CA4"/>
</svg>
