<svg width="90" height="91" viewBox="0 0 90 91" fill="none" xmlns="http://www.w3.org/2000/svg">
<circle cx="45" cy="45.25" r="44.5" fill="#1C727D" fill-opacity="0.7" stroke="black"/>
<g clip-path="url(#clip0_8_30)">
<path d="M30.4871 18.8335H59.8022V44.1076H30.4871V18.8335Z" fill="black"/>
<path d="M62.1357 38.3932C61.9741 38.5765 61.7764 38.7209 61.5725 38.8453C61.1605 39.0926 60.7122 39.2494 60.2652 39.3894C59.3641 39.6498 58.4443 39.7968 57.5245 39.8908C55.6837 40.0815 53.8384 40.0702 52.0028 39.9542C51.085 39.892 50.1688 39.8019 49.2549 39.6711C48.7983 39.6043 48.3415 39.5313 47.8856 39.4385C47.4282 39.3457 46.9755 39.2437 46.5105 39.0847C46.3893 39.0397 46.2853 39.0092 46.136 38.929C45.9968 38.8581 45.8762 38.7616 45.7709 38.6589C45.562 38.4498 45.4214 38.2102 45.3197 37.9702C45.2051 37.6957 45.1292 37.4203 45.0731 37.1455C45.0155 37.4202 44.9386 37.6952 44.822 37.9692C44.7193 38.2088 44.5783 38.4469 44.3707 38.6557C44.2671 38.7595 44.1452 38.8538 44.0077 38.9276C43.8578 39.0051 43.7511 39.0397 43.6313 39.083C43.1658 39.242 42.7129 39.3456 42.2554 39.4376C41.7994 39.5312 41.3425 39.603 40.8856 39.6706C39.9714 39.8019 39.0552 39.8915 38.137 39.954C36.3009 40.07 34.4545 40.0817 32.6131 39.8912C31.6932 39.798 30.7731 39.6495 29.8715 39.3904C29.4241 39.2501 28.9761 39.0926 28.5636 38.8461C28.3593 38.722 28.1615 38.5778 28 38.3937C27.841 38.2102 27.7253 37.9738 27.7277 37.7362C27.786 37.9656 27.9294 38.1482 28.1054 38.2778C28.2791 38.4117 28.4788 38.5077 28.685 38.584C29.0989 38.7353 29.5366 38.8266 29.978 38.8883C30.861 39.0199 31.7614 39.0533 32.6604 39.0747C34.4609 39.0955 36.268 39.0231 38.0706 38.9048C38.972 38.8461 39.8728 38.7721 40.769 38.6805C41.6602 38.5862 42.5705 38.4831 43.4061 38.2956C43.6318 38.239 43.736 38.2065 43.8722 38.0942C44.0023 37.9879 44.1186 37.8309 44.2229 37.6558C44.4306 37.3009 44.5697 36.8696 44.6794 36.4327C44.7952 35.9768 44.8785 35.5074 44.9434 35.0313C44.9641 34.5798 45.0118 34.1313 45.0866 33.6876C45.1574 34.1308 45.2013 34.5781 45.2184 35.0287C45.2795 35.5064 45.3592 35.9773 45.4722 36.4348C45.5769 36.8727 45.7157 37.3032 45.9202 37.6587C46.0235 37.8341 46.139 37.991 46.2685 38.096C46.4027 38.2047 46.5107 38.2398 46.7353 38.2969C47.5708 38.4838 48.4807 38.5867 49.3715 38.6807C50.2676 38.7719 51.1679 38.8464 52.0689 38.905C53.871 39.0231 55.6775 39.0953 57.4772 39.0747C57.9274 39.0697 58.3757 39.0451 58.8236 39.0212C59.2717 38.9966 59.718 38.9545 60.1583 38.8873C60.5998 38.8262 61.0374 38.7353 61.4507 38.5834C61.6567 38.5069 61.8562 38.4109 62.0303 38.2777C62.2084 38.1489 62.3459 37.9639 62.4086 37.7362C62.4067 37.9721 62.2965 38.2109 62.1357 38.3932ZM58.4643 42.2299L57.6419 42.9172L58.2058 41.9841L57.5538 41.1173L58.4388 41.7118L59.2612 41.0247L58.6972 41.9576L59.3492 42.8241L58.4643 42.2299ZM45.8332 42.4259L45.0107 43.1131L45.5747 42.1802L44.9224 41.3133L45.8076 41.9078L46.63 41.2205L46.066 42.1533L46.718 43.0202L45.8332 42.4259ZM32.3695 42.9227L31.5473 43.6099L32.111 42.6769L31.4591 41.8102L32.344 42.4047L33.1664 41.7175L32.6026 42.6503L33.2547 43.5169L32.3695 42.9227ZM74.7661 28.3435C74.5388 27.9945 74.2618 27.6806 73.945 27.4041C73.6244 27.1224 73.281 26.9025 72.8629 26.6828C72.0583 26.245 71.1893 25.971 70.298 25.8571C69.4057 25.7498 68.4886 25.8138 67.5993 26.0474C67.1544 26.1634 66.7177 26.3224 66.2948 26.5179C65.871 26.7103 65.461 26.9424 65.0776 27.2128C64.3106 27.751 63.6246 28.4284 63.1484 29.2137C62.9068 29.6093 62.7564 30.0025 62.6092 30.5059C62.4658 30.9859 62.3551 31.4783 62.2874 31.9781C62.1443 32.9763 62.1551 34.0094 62.3648 35.0161C62.4742 35.5165 62.6267 36.0142 62.8549 36.4799C62.9591 36.6991 63.0818 36.9105 63.2224 37.1103C63.4324 37.2511 63.6403 37.395 63.8446 37.5444C64.6276 38.1167 65.3678 38.756 66.0002 39.4908C65.3061 38.8169 64.5225 38.256 63.7049 37.7651C62.8862 37.2744 62.0308 36.8535 61.1584 36.4775C59.4123 35.7259 57.5966 35.1574 55.7637 34.6813C53.9295 34.2071 52.0697 33.8394 50.2035 33.558C49.2704 33.4178 48.3352 33.3008 47.402 33.2124C46.5961 33.1354 45.7892 33.0834 44.9999 33.068C44.2105 33.0834 43.4038 33.1354 42.5981 33.2124C41.6646 33.3008 40.7293 33.4178 39.7962 33.558C37.9301 33.8394 36.0704 34.2071 34.2362 34.6813C32.4033 35.1574 30.5877 35.7259 28.8415 36.4775C27.9691 36.8535 27.1137 37.2744 26.2948 37.7651C25.4775 38.256 24.6939 38.8169 23.9995 39.4908C24.6319 38.756 25.3723 38.1167 26.1551 37.5444C26.3597 37.395 26.5673 37.2511 26.7776 37.1103C26.9183 36.9105 27.0408 36.6991 27.1449 36.4799C27.3734 36.0142 27.5257 35.5165 27.6351 35.0161C27.8448 34.0094 27.8554 32.9763 27.7125 31.9781C27.6447 31.4783 27.534 30.9859 27.3907 30.5059C27.2433 30.0025 27.093 29.6093 26.8515 29.2137C26.3749 28.4284 25.6895 27.751 24.9225 27.2128C24.5387 26.9424 24.1287 26.7103 23.705 26.5179C23.2821 26.3224 22.8455 26.1634 22.4008 26.0474C21.5112 25.8138 20.5942 25.7498 19.7021 25.8571C18.8106 25.971 17.9416 26.245 17.137 26.6828C16.7189 26.9025 16.3753 27.1224 16.0549 27.4041C15.738 27.6806 15.4611 27.9945 15.2336 28.3435C14.2987 29.7201 14.1781 31.6957 14.8149 33.3492C15.1269 34.1763 15.6347 34.9132 16.275 35.4229C16.5942 35.676 16.9585 35.8734 17.3177 35.9858C17.6986 36.1068 18.1356 36.1634 18.5686 36.156C19.0024 36.1465 19.4395 36.0863 19.8523 35.9552C20.2635 35.8219 20.6517 35.6276 20.9974 35.369C21.3432 35.1103 21.6386 34.7808 21.8851 34.4002C22.0138 34.1989 22.1022 34.0356 22.1698 33.8384C22.2366 33.6463 22.2742 33.4436 22.2851 33.2329C22.3317 32.3869 21.8613 31.4491 21.1311 30.8155C20.9134 30.627 20.6712 30.4626 20.4101 30.3349C20.6747 30.6098 20.8383 30.9867 20.8383 31.403C20.8383 32.2438 20.173 32.9254 19.3522 32.9254C18.5314 32.9254 17.8663 32.2438 17.8663 31.403C17.8663 30.7671 18.2471 30.223 18.7877 29.9951C19.123 29.8295 19.5084 29.7472 19.8948 29.7547C20.4596 29.7696 21.0196 29.9506 21.516 30.2427C22.0154 30.5333 22.4592 30.9355 22.8104 31.4292C23.1609 31.9217 23.413 32.5214 23.482 33.1776C23.5702 35.2387 22.2334 36.8439 20.5525 37.6244C20.7984 38.0739 21.0278 38.5264 21.2432 38.9821C21.7028 39.9606 22.1043 40.9504 22.4679 41.9471C22.8293 42.9444 23.1556 43.948 23.4497 44.9586C23.6579 45.6766 23.8505 46.3876 24.0281 47.1147C24.6288 46.9615 25.2227 46.8231 25.8251 46.6889C26.7451 46.4877 27.6668 46.3058 28.5908 46.1415C30.4383 45.8132 32.2941 45.5542 34.1543 45.3647C37.8312 44.9871 41.5275 44.8838 45.196 45.0936C48.8647 44.8838 52.561 44.9871 56.2378 45.3647C58.098 45.5542 59.9536 45.8132 61.8015 46.1415C62.7253 46.3058 63.6471 46.4877 64.5669 46.6889C65.1695 46.8231 65.7632 46.9615 66.364 47.1147C66.5417 46.3876 66.7342 45.6766 66.9425 44.9586C67.2364 43.948 67.5627 42.9444 67.9243 41.9471C68.2879 40.9504 68.6893 39.9606 69.1489 38.9821C69.3424 38.5729 69.5492 38.1661 69.7666 37.7618C67.9393 37.0439 66.4243 35.3677 66.5178 33.1776C66.5869 32.5214 66.8392 31.9217 67.1893 31.4292C67.5408 30.9355 67.9845 30.5333 68.4837 30.2427C68.9802 29.9506 69.5403 29.7696 70.1051 29.7547C70.4915 29.7472 70.8769 29.8295 71.2122 29.9951C71.7528 30.223 72.1337 30.7671 72.1337 31.403C72.1337 32.2438 71.4685 32.9254 70.6477 32.9254C69.8268 32.9254 69.1616 32.2438 69.1616 31.403C69.1616 30.9867 69.325 30.6098 69.5898 30.3349C69.3288 30.4626 69.0864 30.627 68.8689 30.8155C68.1385 31.4491 67.6683 32.3869 67.7147 33.2329C67.7256 33.4436 67.7633 33.6463 67.8299 33.8384C67.8977 34.0356 67.986 34.1989 68.1149 34.4002C68.3613 34.7808 68.6568 35.1103 69.0028 35.369C69.3482 35.6276 69.7363 35.8219 70.1474 35.9552C70.3475 36.0187 70.553 36.0646 70.7614 36.0974L70.7631 36.0978C70.9844 36.132 71.208 36.1512 71.4313 36.156C71.8643 36.1634 72.3013 36.1068 72.6821 35.9858C73.0414 35.8734 73.4056 35.676 73.7249 35.4229C74.3652 34.9132 74.873 34.1763 75.185 33.3492C75.8218 31.6957 75.7011 29.7201 74.7661 28.3435ZM31.4463 22.867L32.2686 22.1797L31.7049 23.1125L32.3567 23.9794L31.4718 23.3851L30.6492 24.0723L31.2133 23.1394L30.5613 22.2724L31.4463 22.867ZM26.751 25.8613C26.7872 25.9934 26.8031 26.1308 26.7912 26.2806C26.9809 26.4778 27.1626 26.6833 27.334 26.8989C27.7048 27.367 28.0353 27.8765 28.288 28.4371C28.4109 28.72 28.5234 29.0081 28.606 29.3118C28.647 29.4646 28.6877 29.6182 28.7117 29.7549C28.7419 29.8955 28.7678 30.0371 28.7885 30.1795C28.8769 30.7483 28.9293 31.3224 28.9259 31.8964C28.9193 33.0424 28.7239 34.1884 28.2919 35.2325C28.0788 35.7441 27.8116 36.232 27.4767 36.6644C27.8525 36.4336 28.2345 36.2129 28.6216 36.0023C30.3273 35.0765 32.1199 34.3294 33.9406 33.674C35.1491 33.2406 36.3739 32.8576 37.6103 32.5109L35.5967 19.0917L34.8726 18.7253C33.8482 18.2069 32.6191 18.0917 31.4606 18.3408C30.301 18.5907 29.2029 19.177 28.3529 20.0134C27.9291 20.4324 27.5658 20.9113 27.2833 21.4344C27.0032 21.9593 26.8025 22.5266 26.6902 23.1176C26.5769 23.7085 26.5524 24.3228 26.611 24.9383C26.6384 25.246 26.6842 25.5548 26.751 25.8613ZM40.8812 19.4807L41.7036 18.7932L41.1395 19.7264L41.7917 20.5931L40.9065 19.9986L40.0842 20.6858L40.6479 19.7531L39.9961 18.8864L40.8812 19.4807ZM39.5038 32.009C40.4458 31.7779 41.3941 31.5697 42.3517 31.389C43.0926 31.2492 43.8374 31.1275 44.5998 31.0346L44.7002 13.141C43.8797 12.9506 42.7411 13.1437 41.9097 13.2155C41.0165 13.3077 40.1307 13.5594 39.3182 13.997C38.5043 14.4277 37.7597 15.0288 37.1407 15.7465C36.8325 16.1064 36.5617 16.4992 36.3353 16.9075C36.1098 17.3101 35.9324 17.7558 35.8794 18.1299L35.7428 19.0925L38.7904 32.1934C39.0282 32.132 39.2653 32.0675 39.5038 32.009ZM49.8136 19.4807L50.6359 18.7932L50.072 19.7264L50.724 20.5931L49.8389 19.9986L49.0167 20.6858L49.5805 19.7531L48.9284 18.8864L49.8136 19.4807ZM47.6482 31.389C48.6061 31.5697 49.5543 31.7779 50.4959 32.009C50.9505 32.1207 51.4033 32.2382 51.8549 32.3601L54.3194 19.1667L54.284 19.1849L54.1012 18.1317C54.0702 17.9524 54.0035 17.7445 53.9207 17.5412C53.8395 17.3362 53.736 17.1303 53.6211 16.9298C53.3903 16.5281 53.1154 16.143 52.8043 15.791C52.1839 15.0851 51.4418 14.4985 50.6371 14.0727C49.8336 13.6416 48.9611 13.3882 48.0783 13.2852C47.2158 13.1889 46.013 13.0107 45.1494 13.1871L45.7748 31.0842C46.4067 31.1696 47.0294 31.2722 47.6482 31.389ZM58.4388 22.867L59.2612 22.1797L58.6972 23.1125L59.3492 23.9794L58.4643 23.3851L57.6419 24.0723L58.2058 23.1394L57.5538 22.2724L58.4388 22.867ZM56.0591 33.674C57.8798 34.3294 59.6728 35.0765 61.3782 36.0023C61.7655 36.2126 62.1472 36.4336 62.5232 36.6644C62.1882 36.232 61.9212 35.7441 61.7081 35.2325C61.2758 34.1884 61.0805 33.0424 61.074 31.8964C61.0706 31.3224 61.1228 30.7483 61.2114 30.1795C61.2321 30.0371 61.2578 29.8955 61.2881 29.7549C61.3123 29.6182 61.3528 29.4646 61.394 29.3118C61.4765 29.0081 61.5888 28.72 61.7118 28.4371C61.9644 27.8765 62.2952 27.367 62.6661 26.8989C62.8343 26.6874 63.0126 26.4855 63.1982 26.2918C63.1857 26.137 63.2088 25.9982 63.2464 25.8607C63.3123 25.5542 63.357 25.2454 63.3834 24.9374C63.4348 24.322 63.4087 23.7087 63.2857 23.122C63.0499 21.9453 62.4359 20.8873 61.583 20.0816C61.1576 19.6775 60.6722 19.3373 60.1519 19.0697C59.6348 18.7958 59.0801 18.5943 58.512 18.4749C57.3769 18.2233 56.1887 18.3099 55.1354 18.7433L54.4527 19.0972L53.0299 32.6932C54.0487 32.9915 55.0597 33.3156 56.0591 33.674Z" fill="#F4B947"/>
<path d="M62.4087 37.736C62.4068 37.972 62.2966 38.2109 62.1358 38.3928C61.9741 38.5765 61.7765 38.7207 61.5725 38.8451C61.1605 39.0924 60.7125 39.2492 60.2652 39.389C59.3642 39.6494 58.4444 39.7966 57.5246 39.8905C55.6838 40.0815 53.8384 40.0702 52.0028 39.954C51.0851 39.8916 50.1688 39.8016 49.255 39.6709C48.7987 39.604 48.3416 39.531 47.8858 39.4384C47.4283 39.3454 46.9756 39.2433 46.5106 39.0846C46.3893 39.0397 46.2854 39.009 46.1359 38.9286C45.9969 38.858 45.8762 38.7614 45.771 38.6587C45.5621 38.4495 45.4215 38.21 45.3197 37.9698C45.2054 37.6953 45.1293 37.4201 45.0732 37.1453C45.0157 37.42 44.9387 37.695 44.822 37.969C44.7194 38.2086 44.5785 38.4467 44.3708 38.6556C44.2671 38.7591 44.1452 38.8538 44.0078 38.9274C43.8579 39.0051 43.7512 39.0397 43.6313 39.083C43.166 39.242 42.713 39.3452 42.2556 39.4374C41.7994 39.5308 41.3426 39.6028 40.8855 39.6704C39.9717 39.8016 39.0551 39.8911 38.1369 39.9538C36.3009 40.07 34.4546 40.0815 32.6132 39.8908C31.6933 39.7978 30.7731 39.6491 29.8716 39.39C29.4243 39.2499 28.9761 39.0924 28.5638 38.8459C28.3594 38.7218 28.1614 38.5778 28.0001 38.3933C27.841 38.21 27.7252 37.9738 27.7279 37.736C27.7861 37.9652 27.9295 38.148 28.1055 38.2778C28.2791 38.4116 28.4787 38.5075 28.6852 38.5837C29.0992 38.7353 29.5366 38.8262 29.9781 38.8879C30.8611 39.0197 31.7615 39.0531 32.6605 39.0743C34.461 39.0955 36.2681 39.0228 38.0709 38.9045C38.9721 38.8459 39.8728 38.7719 40.7691 38.6802C41.6602 38.586 42.5707 38.4828 43.4061 38.2954C43.6318 38.2389 43.7363 38.2063 43.8723 38.0939C44.0022 37.9875 44.1186 37.8307 44.2229 37.6554C44.4307 37.3005 44.5699 36.8694 44.6795 36.4325C44.7953 35.9765 44.8787 35.5073 44.9436 35.031C44.9641 34.5794 45.0119 34.1311 45.0868 33.6874C45.1575 34.1306 45.2014 34.5779 45.2185 35.0287C45.2795 35.5062 45.3593 35.977 45.4724 36.4346C45.577 36.8724 45.7159 37.303 45.9203 37.6587C46.0236 37.834 46.139 37.9908 46.2689 38.0958C46.4028 38.2046 46.5106 38.2397 46.7353 38.2965C47.5709 38.4834 48.4808 38.5865 49.3716 38.6803C50.2677 38.7717 51.1679 38.8464 52.069 38.9046C53.8711 39.0228 55.6776 39.0953 57.4773 39.0743C57.9274 39.0694 58.376 39.0451 58.8237 39.0211C59.2717 38.9962 59.718 38.9545 60.1584 38.8872C60.5999 38.8259 61.0375 38.7353 61.4508 38.5834C61.6568 38.5067 61.8562 38.4107 62.0304 38.2775C62.2085 38.1487 62.3459 37.9639 62.4087 37.736ZM75.1851 33.3491C74.873 34.1761 74.3652 34.9128 73.725 35.4228C73.4057 35.676 73.0414 35.8732 72.6821 35.9858C72.3014 36.1064 71.8644 36.163 71.4314 36.156C71.2081 36.1511 70.9844 36.132 70.7632 36.0976L70.7618 36.0966L70.7615 36.0972C70.5531 36.0646 70.3475 36.0185 70.1475 35.9548C69.7364 35.8217 69.3483 35.6273 69.0029 35.3687C68.6569 35.1099 68.3613 34.7807 68.115 34.3999C67.986 34.1987 67.8978 34.0354 67.83 33.8382C67.7634 33.6459 67.7257 33.4432 67.7148 33.2329C67.6684 32.3868 68.1385 31.4487 68.869 30.8154C69.0865 30.6268 69.3289 30.4624 69.5898 30.3347C69.325 30.6094 69.1617 30.9863 69.1617 31.403C69.1617 32.2434 69.8269 32.925 70.6477 32.925C71.4684 32.925 72.1338 32.2434 72.1338 31.403C72.1338 30.7668 71.7529 30.2228 71.2122 29.9949C70.877 29.8293 70.4915 29.747 70.1052 29.7545C69.5403 29.7696 68.9803 29.9503 68.4837 30.2427C67.9846 30.5331 67.541 30.9353 67.1894 31.429C66.8392 31.9213 66.5869 32.5212 66.5179 33.1773C66.4243 35.3677 67.9394 37.0437 69.7667 37.7616C69.5493 38.1659 69.3425 38.5725 69.149 38.9821C68.6894 39.9604 68.288 40.95 67.9244 41.9467C67.563 42.944 67.2365 43.9478 66.9426 44.9586C66.7343 45.6765 66.5418 46.3876 66.3641 47.1147C65.7632 46.9613 65.1696 46.8229 64.5669 46.6886C63.6471 46.4875 62.7254 46.3054 61.8016 46.1413C59.9538 45.8131 58.098 45.5542 56.2379 45.3644C52.5613 44.9868 48.8647 44.8836 45.1961 45.0934C41.5276 44.8836 37.8312 44.9868 34.1544 45.3644C32.2941 45.5542 30.4385 45.8131 28.5909 46.1413C27.6671 46.3054 26.7452 46.4875 25.8254 46.6886C25.2226 46.8229 24.6291 46.9613 24.028 47.1147C23.8506 46.3876 23.658 45.6765 23.4498 44.9586C23.1557 43.9478 22.8294 42.944 22.468 41.9467C22.1043 40.95 21.7029 39.9604 21.2433 38.9821C21.028 38.5264 20.7983 38.0737 20.5527 37.6242C22.2333 36.8435 23.5702 35.2384 23.4821 33.1773C23.4131 32.5212 23.1608 31.9213 22.8105 31.429C22.4592 30.9353 22.0154 30.5331 21.5161 30.2427C21.0197 29.9503 20.4595 29.7696 19.895 29.7545C19.5086 29.747 19.1232 29.8293 18.7879 29.9949C18.2471 30.2228 17.8664 30.7668 17.8664 31.403C17.8664 32.2434 18.5316 32.925 19.3523 32.925C20.1731 32.925 20.8384 32.2434 20.8384 31.403C20.8384 30.9863 20.6747 30.6094 20.4103 30.3347C20.6713 30.4624 20.9135 30.6268 21.131 30.8154C21.8615 31.4487 22.3316 32.3868 22.285 33.2329C22.2745 33.4432 22.2365 33.6459 22.1699 33.8382C22.1021 34.0354 22.014 34.1987 21.8852 34.3999C21.6388 34.7807 21.3433 35.1099 20.9973 35.3687C20.6517 35.6273 20.2638 35.8217 19.8524 35.9548C19.4398 36.0861 19.0026 36.1461 18.5685 36.156C18.1358 36.163 17.6987 36.1064 17.3177 35.9858C16.9586 35.8732 16.5943 35.676 16.2751 35.4228C15.6348 34.9128 15.1268 34.1761 14.8149 33.3491C14.1782 31.6957 14.2988 29.7199 15.2338 28.3435C15.4611 27.9945 15.7383 27.6804 16.055 27.4041C16.3753 27.1224 16.7191 26.9025 17.137 26.6828C17.9417 26.2446 18.8107 25.9708 19.7021 25.8567C20.5942 25.7494 21.5113 25.8136 22.4008 26.0471C22.8455 26.1632 23.2822 26.3224 23.7049 26.5177C24.129 26.7103 24.5389 26.9422 24.9225 27.2128C25.6894 27.7508 26.3751 28.4283 26.8515 29.2133C27.0931 29.6091 27.2435 30.0023 27.3907 30.5059C27.5343 30.9858 27.6448 31.4781 27.7127 31.9778C27.8556 32.9759 27.8449 34.0094 27.6352 35.0159C27.5258 35.5164 27.3733 36.0142 27.145 36.4797C27.0409 36.6989 26.9182 36.9103 26.7777 37.1102C26.5675 37.2509 26.3598 37.395 26.1554 37.5442C25.3722 38.1165 24.632 38.7558 23.9997 39.4904C24.694 38.8167 25.4774 38.256 26.2949 37.7649C27.1136 37.2742 27.9692 36.8534 28.8416 36.4773C30.5876 35.7257 32.4035 35.1572 34.2363 34.681C36.0704 34.2071 37.9302 33.8392 39.7963 33.5578C40.7294 33.4178 41.6647 33.3007 42.5978 33.212C43.4037 33.1353 44.2106 33.0832 45 33.0678C45.7893 33.0832 46.5961 33.1353 47.4022 33.212C48.3353 33.3007 49.2705 33.4178 50.2036 33.5578C52.07 33.8392 53.9296 34.2071 55.7638 34.681C57.5966 35.1572 59.4124 35.7257 61.1584 36.4773C62.0308 36.8534 62.8862 37.2742 63.705 37.7649C64.5227 38.256 65.3062 38.8167 66.0003 39.4904C65.3679 38.7558 64.6277 38.1165 63.8447 37.5442C63.6404 37.395 63.4325 37.2509 63.2225 37.1102C63.0818 36.9103 62.9591 36.6989 62.855 36.4797C62.6267 36.0142 62.4742 35.5164 62.3648 35.0159C62.1553 34.0094 62.1444 32.9759 62.2875 31.9778C62.3552 31.4781 62.4659 30.9858 62.6094 30.5059C62.7565 30.0023 62.9069 29.6091 63.1485 29.2133C63.6247 28.4283 64.3106 27.7508 65.0776 27.2128C65.4611 26.9422 65.871 26.7103 66.2949 26.5177C66.7178 26.3224 67.1545 26.1632 67.5993 26.0471C68.4889 25.8136 69.4058 25.7494 70.298 25.8567C71.1893 25.9708 72.0584 26.2446 72.863 26.6828C73.2811 26.9025 73.6245 27.1224 73.9451 27.4041C74.2619 27.6804 74.5389 27.9945 74.7662 28.3435C75.7012 29.7199 75.8218 31.6957 75.1851 33.3491ZM26.6902 23.1176C26.8024 22.5265 27.0032 21.9589 27.2833 21.4343C27.566 20.9111 27.9291 20.4323 28.3528 20.0132C29.203 19.1766 30.3012 18.5907 31.4607 18.3406C32.6192 18.0915 33.8484 18.2069 34.8727 18.7252L35.5967 19.0916L37.6103 32.5109C36.374 32.8573 35.1492 33.2403 33.9409 33.6736C32.1202 34.3292 30.3273 35.0761 28.6216 36.0021C28.2345 36.2126 27.8527 36.4333 27.4768 36.664C27.8117 36.2318 28.0789 35.7441 28.2918 35.2325C28.7238 34.1882 28.9196 33.0422 28.9262 31.8962C28.9294 31.3222 28.8771 30.7481 28.7885 30.1795C28.7677 30.0369 28.7421 29.8953 28.712 29.7547C28.6876 29.6178 28.6471 29.4646 28.6061 29.3116C28.5234 29.0079 28.411 28.7198 28.2881 28.4369C28.0355 27.8765 27.7049 27.3668 27.334 26.8987C27.1626 26.6832 26.981 26.4776 26.7913 26.2804C26.803 26.1308 26.7873 25.9932 26.7511 25.8612C26.6843 25.5546 26.6386 25.246 26.6111 24.938C26.5523 24.3228 26.5768 23.7085 26.6902 23.1176ZM35.8795 18.1296C35.9325 17.7558 36.1097 17.31 36.3354 16.9071C36.5617 16.499 36.8326 16.1062 37.1408 15.7465C37.7598 15.0286 38.5042 14.4276 39.3183 13.9967C40.1309 13.5592 41.0166 13.3075 41.9098 13.2153C42.7412 13.1436 43.8798 12.9504 44.7003 13.1408L44.5999 31.0344C43.8375 31.1271 43.0926 31.2492 42.3519 31.3888C41.3938 31.5695 40.446 31.7777 39.5041 32.0088C39.2654 32.0674 39.0283 32.1318 38.7904 32.1932L35.743 19.0923L35.8795 18.1296ZM48.0785 13.2852C48.9612 13.3879 49.8337 13.6414 50.6372 14.0726C51.4419 14.4983 52.184 15.0849 52.8044 15.791C53.1155 16.1426 53.3904 16.5281 53.6212 16.9294C53.7361 17.1301 53.8396 17.3359 53.9208 17.541C54.0036 17.7445 54.0702 17.9522 54.1013 18.1316L54.2841 19.1847L54.3195 19.1663L51.855 32.3601C51.4034 32.2378 50.9506 32.1205 50.4959 32.0088C49.5543 31.7777 48.6063 31.5695 47.6483 31.3888C47.0294 31.2722 46.4068 31.1695 45.7748 31.084L45.1495 13.1869C46.0129 13.0103 47.2159 13.1888 48.0785 13.2852ZM55.1352 18.7431L55.1355 18.743C56.1887 18.3098 57.377 18.2233 58.5121 18.4747C59.0802 18.5941 59.6349 18.7956 60.152 19.0695C60.6723 19.3371 61.1576 19.6774 61.5831 20.0814C62.436 20.8873 63.05 21.9453 63.2858 23.1218C63.4088 23.7086 63.4349 24.3218 63.3835 24.9373C63.357 25.2452 63.3123 25.554 63.2465 25.8607C63.2089 25.9978 63.1858 26.137 63.1983 26.2916C63.0126 26.4854 62.8343 26.6873 62.6661 26.8987C62.2953 27.3668 61.9645 27.8765 61.7119 28.4369C61.5889 28.7198 61.4767 29.0079 61.3941 29.3116C61.3529 29.4646 61.3124 29.6178 61.2882 29.7547C61.2579 29.8953 61.2321 30.0369 61.2115 30.1795C61.1229 30.7481 61.0707 31.3222 61.074 31.8962C61.0806 33.0422 61.2759 34.1882 61.7082 35.2325C61.9213 35.7441 62.1883 36.2318 62.5233 36.664C62.1473 36.4333 61.7656 36.2124 61.3782 36.0021C59.6729 35.0761 57.8799 34.3292 56.0591 33.6736C55.0597 33.3154 54.0489 32.9913 53.03 32.6929L54.4528 19.0972L55.1352 18.7431ZM77.989 30.5758C77.9198 29.3043 77.5227 28.0193 76.806 26.9282C76.4474 26.3839 76.0072 25.8979 75.521 25.4819C75.0406 25.0661 74.4831 24.7191 73.9625 24.4585C72.8958 23.921 71.7189 23.5687 70.5193 23.4732C69.3207 23.3887 68.1089 23.5244 66.9863 23.911C66.0992 24.2057 65.2622 24.6316 64.5037 25.1698C64.5083 25.1443 64.5149 25.1187 64.5192 25.0927C64.6448 24.3799 64.6653 23.6364 64.5681 22.9005C64.4723 22.1647 64.2507 21.4399 63.9214 20.7704C63.5888 20.1031 63.1538 19.4876 62.6327 18.9645C62.1145 18.4387 61.5105 18.0525 60.8712 17.6982C60.2285 17.3502 59.497 17.1239 58.7838 16.9673C57.6585 16.7284 56.4659 16.8374 55.3485 17.1972C55.2668 16.9012 55.2034 16.448 55.0866 16.1772C54.8494 15.6316 54.5615 15.1185 54.2267 14.6399C53.5592 13.6821 52.7208 12.8431 51.7483 12.1751C50.7785 11.5028 49.6738 11.1077 48.5178 10.8361C47.5829 10.6195 46.6168 10.4679 45.6688 10.5058L45 10.5134L44.2138 10.523C44.1853 10.5232 44.1572 10.5226 44.1287 10.5234C43.9815 10.5244 43.8353 10.5211 43.6882 10.526L43.2471 10.5503C42.6595 10.5967 42.074 10.6806 41.501 10.8253C40.3553 11.107 39.2569 11.585 38.2961 12.2509C37.3332 12.9137 36.497 13.7382 35.8281 14.6842C35.4902 15.1548 35.1987 15.6607 34.9569 16.1996C34.8366 16.4695 34.7293 16.7483 34.6446 17.0441C34.6396 17.0617 34.6353 17.0794 34.63 17.097C33.4992 16.7768 32.236 16.67 31.1172 16.9129C29.7151 17.2156 28.3916 17.8659 27.3517 18.889C26.3088 19.9039 25.6139 21.373 25.4095 22.8409C25.3027 23.5728 25.3682 24.3789 25.4861 25.0919C25.4906 25.1196 25.4976 25.1465 25.5027 25.1743C24.7423 24.6338 23.9034 24.2065 23.0137 23.911C21.8911 23.5244 20.6793 23.3887 19.4808 23.4732C18.2811 23.5687 17.1044 23.921 16.0377 24.4585C15.517 24.7191 14.9594 25.0661 14.479 25.4819C13.9928 25.8979 13.5526 26.3839 13.1941 26.9282C12.4771 28.0193 12.0802 29.3043 12.011 30.5758C11.9466 31.8499 12.1654 33.1195 12.6668 34.2765C13.1672 35.4274 13.9453 36.4965 15.0248 37.2329C15.5632 37.5977 16.157 37.8847 16.8183 38.0312C16.9656 38.0632 17.112 38.0871 17.2578 38.107C17.8127 38.7867 18.329 39.5433 18.8078 40.3386C19.3081 41.173 19.771 42.0478 20.2043 42.9447C20.6359 43.8428 21.0408 44.7615 21.417 45.6953C21.7916 46.6244 22.1502 47.586 22.4571 48.519L22.7797 49.5001L23.6425 49.1712C24.4671 48.857 25.3568 48.5654 26.2289 48.2927C27.1074 48.0211 27.9929 47.7668 28.8837 47.5292C30.6653 47.0541 32.4675 46.6443 34.284 46.3018C37.8746 45.6216 41.5237 45.2063 45.1961 45.1043C48.8684 45.2063 52.5177 45.6216 56.1083 46.3018C57.9245 46.6443 59.7268 47.0541 61.5085 47.5292C62.3994 47.7668 63.285 48.0211 64.1634 48.2927C65.0355 48.5654 65.9252 48.857 66.7498 49.1712L67.6125 49.5001L67.9352 48.519C68.242 47.586 68.6007 46.6244 68.9754 45.6953C69.3513 44.7615 69.7564 43.8428 70.1878 42.9447C70.6211 42.0478 71.0842 41.173 71.5845 40.3386C72.0817 39.5126 72.6182 38.7268 73.1978 38.0268C73.8526 37.8796 74.4412 37.5947 74.9752 37.2329C76.0549 36.4965 76.8328 35.4274 77.3332 34.2765C77.8346 33.1195 78.0534 31.8499 77.989 30.5758Z" fill="#0B0B09"/>
</g>
<path d="M32.0261 52.304C31.6181 52.3267 31.3178 52.372 31.1251 52.44C30.9438 52.508 30.8191 52.6383 30.7511 52.831C30.6831 53.0237 30.6491 53.3353 30.6491 53.766V62.198C30.6491 62.6287 30.6831 62.9403 30.7511 63.133C30.8191 63.3257 30.9438 63.456 31.1251 63.524C31.3178 63.592 31.6181 63.6373 32.0261 63.66V64C31.5048 63.966 30.7851 63.949 29.8671 63.949C28.8924 63.949 28.1671 63.966 27.6911 64V63.66C28.0991 63.6373 28.3938 63.592 28.5751 63.524C28.7678 63.456 28.8981 63.3257 28.9661 63.133C29.0341 62.9403 29.0681 62.6287 29.0681 62.198V53.086L24.9711 64.085H24.6991L20.4151 53.052V62.028C20.4151 62.47 20.4491 62.7987 20.5171 63.014C20.5964 63.2293 20.7438 63.388 20.9591 63.49C21.1744 63.5807 21.5088 63.6373 21.9621 63.66V64C21.5541 63.966 20.9761 63.949 20.2281 63.949C19.5481 63.949 19.0211 63.966 18.6471 64V63.66C19.0438 63.6373 19.3384 63.5807 19.5311 63.49C19.7238 63.388 19.8541 63.2293 19.9221 63.014C19.9901 62.7873 20.0241 62.4587 20.0241 62.028V53.766C20.0241 53.3353 19.9901 53.0237 19.9221 52.831C19.8541 52.6383 19.7238 52.508 19.5311 52.44C19.3498 52.372 19.0551 52.3267 18.6471 52.304V51.964C19.0211 51.998 19.5481 52.015 20.2281 52.015C20.8174 52.015 21.2991 51.998 21.6731 51.964L25.4131 61.807L29.0681 52.015H29.8671C30.7851 52.015 31.5048 51.998 32.0261 51.964V52.304ZM41.8197 61.994C41.8197 62.5833 41.8594 63.252 41.9387 64C41.202 63.966 39.961 63.949 38.2157 63.949C36.119 63.949 34.5324 63.966 33.4557 64V63.66C33.8637 63.6373 34.1584 63.592 34.3397 63.524C34.5324 63.456 34.6627 63.3257 34.7307 63.133C34.7987 62.9403 34.8327 62.6287 34.8327 62.198V55.466C34.8327 55.0353 34.7987 54.7237 34.7307 54.531C34.6627 54.3383 34.5324 54.208 34.3397 54.14C34.1584 54.072 33.8637 54.0267 33.4557 54.004V53.664C34.5324 53.698 36.119 53.715 38.2157 53.715C39.8024 53.715 40.93 53.698 41.5987 53.664C41.5194 54.344 41.4797 54.956 41.4797 55.5C41.4797 55.942 41.4967 56.2933 41.5307 56.554H41.1397C41.0604 55.6247 40.862 54.9787 40.5447 54.616C40.2387 54.242 39.7344 54.055 39.0317 54.055H37.7907C37.3827 54.055 37.0824 54.089 36.8897 54.157C36.7084 54.2137 36.5837 54.3383 36.5157 54.531C36.4477 54.7237 36.4137 55.0353 36.4137 55.466V58.628H37.8247C38.1874 58.628 38.465 58.5373 38.6577 58.356C38.8504 58.1633 38.9807 57.9593 39.0487 57.744C39.1167 57.5173 39.179 57.234 39.2357 56.894H39.6267C39.5927 57.2793 39.5757 57.6987 39.5757 58.152V58.798C39.5757 59.24 39.6097 59.8747 39.6777 60.702H39.2867C39.2187 60.158 39.0884 59.733 38.8957 59.427C38.703 59.121 38.346 58.968 37.8247 58.968H36.4137V62.198C36.4137 62.6287 36.4477 62.9403 36.5157 63.133C36.5837 63.3257 36.7084 63.456 36.8897 63.524C37.0824 63.5807 37.3827 63.609 37.7907 63.609H39.0317C39.5984 63.609 40.046 63.5183 40.3747 63.337C40.7034 63.1557 40.9527 62.8667 41.1227 62.47C41.2927 62.062 41.4117 61.4953 41.4797 60.77H41.8707C41.8367 61.076 41.8197 61.484 41.8197 61.994ZM49.0401 58.492C50.2187 58.6393 51.0631 58.9623 51.5731 59.461C52.0831 59.9483 52.3381 60.532 52.3381 61.212C52.3381 61.756 52.1794 62.2377 51.8621 62.657C51.5561 63.0763 51.1084 63.405 50.5191 63.643C49.9297 63.881 49.2327 64 48.4281 64C48.1447 64 47.9011 63.9943 47.6971 63.983C46.9944 63.9603 46.3201 63.949 45.6741 63.949C44.7447 63.949 44.0421 63.966 43.5661 64V63.66C43.9741 63.6373 44.2687 63.592 44.4501 63.524C44.6427 63.456 44.7731 63.3257 44.8411 63.133C44.9091 62.9403 44.9431 62.6287 44.9431 62.198V55.466C44.9431 55.0353 44.9091 54.7237 44.8411 54.531C44.7731 54.3383 44.6427 54.208 44.4501 54.14C44.2687 54.072 43.9741 54.0267 43.5661 54.004V53.664C44.0421 53.698 44.7334 53.715 45.6401 53.715L47.3741 53.698C47.5667 53.6867 47.7877 53.681 48.0371 53.681C49.1364 53.681 49.9807 53.8963 50.5701 54.327C51.1594 54.7463 51.4541 55.3073 51.4541 56.01C51.4541 56.554 51.2614 57.0413 50.8761 57.472C50.4907 57.9027 49.8787 58.2313 49.0401 58.458V58.492ZM47.6121 54.004C47.3061 54.004 47.0737 54.0437 46.9151 54.123C46.7677 54.2023 46.6657 54.344 46.6091 54.548C46.5524 54.752 46.5241 55.058 46.5241 55.466V58.458H47.4931C48.3657 58.458 48.9721 58.2597 49.3121 57.863C49.6521 57.4663 49.8221 56.911 49.8221 56.197C49.8221 55.4603 49.6464 54.9107 49.2951 54.548C48.9437 54.1853 48.3827 54.004 47.6121 54.004ZM47.6291 63.609C48.6604 63.609 49.4197 63.405 49.9071 62.997C50.3944 62.5777 50.6381 61.96 50.6381 61.144C50.6381 60.3507 50.4114 59.7557 49.9581 59.359C49.5047 58.951 48.7794 58.747 47.7821 58.747H46.5241V62.198C46.5241 62.606 46.5524 62.9063 46.6091 63.099C46.6657 63.2917 46.7677 63.4277 46.9151 63.507C47.0737 63.575 47.3117 63.609 47.6291 63.609ZM62.0404 61.994C62.0404 62.5833 62.0801 63.252 62.1594 64C61.4227 63.966 60.1817 63.949 58.4364 63.949C56.3397 63.949 54.7531 63.966 53.6764 64V63.66C54.0844 63.6373 54.3791 63.592 54.5604 63.524C54.7531 63.456 54.8834 63.3257 54.9514 63.133C55.0194 62.9403 55.0534 62.6287 55.0534 62.198V55.466C55.0534 55.0353 55.0194 54.7237 54.9514 54.531C54.8834 54.3383 54.7531 54.208 54.5604 54.14C54.3791 54.072 54.0844 54.0267 53.6764 54.004V53.664C54.7531 53.698 56.3397 53.715 58.4364 53.715C60.0231 53.715 61.1507 53.698 61.8194 53.664C61.7401 54.344 61.7004 54.956 61.7004 55.5C61.7004 55.942 61.7174 56.2933 61.7514 56.554H61.3604C61.2811 55.6247 61.0827 54.9787 60.7654 54.616C60.4594 54.242 59.9551 54.055 59.2524 54.055H58.0114C57.6034 54.055 57.3031 54.089 57.1104 54.157C56.9291 54.2137 56.8044 54.3383 56.7364 54.531C56.6684 54.7237 56.6344 55.0353 56.6344 55.466V58.628H58.0454C58.4081 58.628 58.6857 58.5373 58.8784 58.356C59.0711 58.1633 59.2014 57.9593 59.2694 57.744C59.3374 57.5173 59.3997 57.234 59.4564 56.894H59.8474C59.8134 57.2793 59.7964 57.6987 59.7964 58.152V58.798C59.7964 59.24 59.8304 59.8747 59.8984 60.702H59.5074C59.4394 60.158 59.3091 59.733 59.1164 59.427C58.9237 59.121 58.5667 58.968 58.0454 58.968H56.6344V62.198C56.6344 62.6287 56.6684 62.9403 56.7364 63.133C56.8044 63.3257 56.9291 63.456 57.1104 63.524C57.3031 63.5807 57.6034 63.609 58.0114 63.609H59.2524C59.8191 63.609 60.2667 63.5183 60.5954 63.337C60.9241 63.1557 61.1734 62.8667 61.3434 62.47C61.5134 62.062 61.6324 61.4953 61.7004 60.77H62.0914C62.0574 61.076 62.0404 61.484 62.0404 61.994ZM68.1218 52.304C67.7138 52.3267 67.4134 52.372 67.2208 52.44C67.0394 52.508 66.9148 52.6383 66.8468 52.831C66.7788 53.0237 66.7448 53.3353 66.7448 53.766V62.198C66.7448 62.6287 66.7788 62.9403 66.8468 63.133C66.9148 63.3257 67.0394 63.456 67.2208 63.524C67.4134 63.5807 67.7138 63.609 68.1218 63.609H69.3628C70.0654 63.609 70.5981 63.5127 70.9608 63.32C71.3348 63.116 71.6068 62.793 71.7768 62.351C71.9468 61.909 72.0714 61.2687 72.1508 60.43H72.5418C72.5078 60.7813 72.4908 61.246 72.4908 61.824C72.4908 62.47 72.5304 63.1953 72.6098 64C71.8391 63.966 70.5414 63.949 68.7168 63.949C66.5408 63.949 64.8974 63.966 63.7868 64V63.66C64.1948 63.6373 64.4894 63.592 64.6708 63.524C64.8634 63.456 64.9938 63.3257 65.0618 63.133C65.1298 62.9403 65.1638 62.6287 65.1638 62.198V53.766C65.1638 53.3353 65.1298 53.0237 65.0618 52.831C64.9938 52.6383 64.8634 52.508 64.6708 52.44C64.4894 52.372 64.1948 52.3267 63.7868 52.304V51.964C64.2628 51.998 64.9881 52.015 65.9628 52.015C66.8694 52.015 67.5891 51.998 68.1218 51.964V52.304ZM35.068 69.304C34.66 69.3267 34.3597 69.372 34.167 69.44C33.9857 69.508 33.861 69.6383 33.793 69.831C33.725 70.0237 33.691 70.3353 33.691 70.766V79.198C33.691 79.6287 33.725 79.9403 33.793 80.133C33.861 80.3257 33.9857 80.456 34.167 80.524C34.3597 80.5807 34.66 80.609 35.068 80.609H36.309C37.0117 80.609 37.5444 80.5127 37.907 80.32C38.281 80.116 38.553 79.793 38.723 79.351C38.893 78.909 39.0177 78.2687 39.097 77.43H39.488C39.454 77.7813 39.437 78.246 39.437 78.824C39.437 79.47 39.4767 80.1953 39.556 81C38.7854 80.966 37.4877 80.949 35.663 80.949C33.487 80.949 31.8437 80.966 30.733 81V80.66C31.141 80.6373 31.4357 80.592 31.617 80.524C31.8097 80.456 31.94 80.3257 32.008 80.133C32.076 79.9403 32.11 79.6287 32.11 79.198V70.766C32.11 70.3353 32.076 70.0237 32.008 69.831C31.94 69.6383 31.8097 69.508 31.617 69.44C31.4357 69.372 31.141 69.3267 30.733 69.304V68.964C31.209 68.998 31.9344 69.015 32.909 69.015C33.8157 69.015 34.5354 68.998 35.068 68.964V69.304ZM49.6522 79.572C49.9242 80.2747 50.3152 80.6373 50.8252 80.66V81C50.3719 80.966 49.7655 80.949 49.0062 80.949C48.0315 80.949 47.3062 80.966 46.8302 81V80.66C47.2609 80.6373 47.5669 80.5863 47.7482 80.507C47.9409 80.4163 48.0372 80.2577 48.0372 80.031C48.0372 79.8383 47.9692 79.572 47.8332 79.232L46.7962 76.444H42.6822L41.9852 78.246C41.7585 78.858 41.6452 79.3227 41.6452 79.64C41.6452 79.9913 41.7642 80.2463 42.0022 80.405C42.2515 80.5637 42.6255 80.6487 43.1242 80.66V81C42.4782 80.966 41.8265 80.949 41.1692 80.949C40.6592 80.949 40.2342 80.966 39.8942 81V80.66C40.4609 80.524 40.9085 80.031 41.2372 79.181L45.2322 68.879H45.5042L49.6522 79.572ZM46.6602 76.104L44.7562 71.021L42.8182 76.104H46.6602ZM56.7472 74.642C57.9938 74.812 58.8835 75.1747 59.4162 75.73C59.9488 76.274 60.2152 76.9313 60.2152 77.702C60.2152 78.348 60.0508 78.9203 59.7222 79.419C59.3935 79.9177 58.9232 80.3087 58.3112 80.592C57.6992 80.864 56.9738 81 56.1352 81C55.8292 81 55.5685 80.9943 55.3532 80.983C54.6278 80.9603 53.9138 80.949 53.2112 80.949C52.2818 80.949 51.5792 80.966 51.1032 81V80.66C51.5112 80.6373 51.8058 80.592 51.9872 80.524C52.1798 80.456 52.3102 80.3257 52.3782 80.133C52.4462 79.9403 52.4802 79.6287 52.4802 79.198V70.766C52.4802 70.3353 52.4462 70.0237 52.3782 69.831C52.3102 69.6383 52.1798 69.508 51.9872 69.44C51.8058 69.372 51.5112 69.3267 51.1032 69.304V68.964C51.5792 68.998 52.2705 69.015 53.1772 69.015L55.0132 68.998C55.2285 68.9867 55.4722 68.981 55.7442 68.981C56.9002 68.981 57.7842 69.2247 58.3962 69.712C59.0195 70.1993 59.3312 70.8453 59.3312 71.65C59.3312 72.3073 59.1215 72.8967 58.7022 73.418C58.2942 73.9393 57.6425 74.336 56.7472 74.608V74.642ZM55.3192 69.304C54.9678 69.304 54.7015 69.3437 54.5202 69.423C54.3502 69.5023 54.2312 69.644 54.1632 69.848C54.0952 70.052 54.0612 70.358 54.0612 70.766V74.608H55.2002C56.1295 74.608 56.7755 74.3587 57.1382 73.86C57.5122 73.35 57.6992 72.6757 57.6992 71.837C57.6992 70.987 57.5122 70.3523 57.1382 69.933C56.7642 69.5137 56.1578 69.304 55.3192 69.304ZM55.3362 80.609C57.4555 80.609 58.5152 79.6173 58.5152 77.634C58.5152 76.7387 58.2715 76.0587 57.7842 75.594C57.3082 75.1293 56.5432 74.897 55.4892 74.897H54.0612V79.198C54.0612 79.606 54.0952 79.9063 54.1632 80.099C54.2312 80.2917 54.3502 80.4277 54.5202 80.507C54.7015 80.575 54.9735 80.609 55.3362 80.609Z" fill="white"/>
<defs>
<clipPath id="clip0_8_30">
<rect width="66" height="39" fill="white" transform="translate(12 10.5)"/>
</clipPath>
</defs>
</svg>
